#!OML:ASF X:\für Bonn\!DataBase\2005_08_10_Bjorn_Final\c3d\bjorn.ASF
:FULLY-SPECIFIED
:DEGREES
64
root -17.6075 19.2312 -0.803514 1242.3 255.19 -164.538
lowerback -5.29644 2.79116 -4.85458
upperback 8.2499 4.60255 -5.49695
thorax 12.01 1.97433 -2.5808
lowerneck -0.491294 -8.28854 1.74655
upperneck 4.69546 -11.2958 3.5382
head 1.66044 -5.55905 0.623898
rclavicle 2.46493e-014 -2.8625e-014
rhumerus 32.0497 -5.68617 -59.3503
rradius 65.6113
rwrist -22.5342
rhand -24.108 16.3281
rfingers 7.12502
rthumb 2.37304 -13.6385
lclavicle 2.46493e-014 -2.8625e-014
lhumerus -21.669 -7.13679 83.8275
lradius 41.2591
lwrist -11.7737
lhand -23.0574 -8.08668
lfingers 7.12502
lthumb 3.38763 21.8661
rfemur -19.4414 0.130879 8.13064
rtibia 27.061
rfoot -4.5235 15.392
rtoes -4.39676
lfemur 0.794389 2.97756 -20.5636
ltibia 21.6584
lfoot -11.1989 -14.824
ltoes -5.23435
65
root -17.7058 19.2255 -0.816433 1242.73 254.772 -164.868
lowerback -5.44267 2.80961 -4.76181
upperback 8.24252 4.63322 -5.46811
thorax 12.0963 1.99644 -2.58993
lowerneck -0.478277 -8.363 1.9427
upperneck 4.76946 -11.3992 3.47501
head 1.66706 -5.6074 0.571634
rclavicle 4.37326e-014 -1.04958e-013
rhumerus 33.1225 -6.05523 -58.6069
rradius 64.4957
rwrist -22.384
rhand -24.472 16.7352
rfingers 7.12502
rthumb 2.02154 -13.235
lclavicle 4.37326e-014 -1.04958e-013
lhumerus -21.69 -7.0908 83.9575
lradius 41.0085
lwrist -12.1071
lhand -22.8219 -8.14593
lfingers 7.12502
lthumb 3.61507 21.8032
rfemur -19.4587 0.148324 8.13832
rtibia 27.0884
rfoot -3.87628 14.7981
rtoes -3.48726
lfemur 1.07751 2.85377 -20.4506
ltibia 21.4294
lfoot -11.2769 -15.0877
ltoes -5.13693
66
root -17.8037 19.2199 -0.829173 1243.23 254.341 -165.264
lowerback -5.60558 2.81098 -4.66129
upperback 8.23987 4.64019 -5.42083
thorax 12.1967 2.0068 -2.58611
lowerneck -0.456597 -8.42795 2.10559
upperneck 4.83961 -11.4894 3.42558
head 1.67359 -5.64955 0.529492
rclavicle -1.55052e-014 2.06736e-014
rhumerus 34.1996 -6.41338 -57.9471
rradius 63.3578
rwrist -22.1166
rhand -24.7606 17.1015
rfingers 7.12502
rthumb 1.74282 -12.8711
lclavicle -1.55052e-014 2.06736e-014
lhumerus -21.7368 -6.92924 84.0786
lradius 40.7451
lwrist -12.534
lhand -22.6049 -8.21134
lfingers 7.12502
lthumb 3.8246 21.7341
rfemur -19.4359 0.162411 8.16734
rtibia 27.2126
rfoot -3.32001 14.1859
rtoes -2.99212
lfemur 1.33966 2.73723 -20.3147
ltibia 21.225
lfoot -11.3718 -15.3525
ltoes -5.19644
67
root -17.9011 19.2143 -0.843096 1243.72 253.894 -165.662
lowerback -5.7477 2.81259 -4.55526
upperback 8.23073 4.64441 -5.37903
thorax 12.2777 2.01704 -2.59242
lowerneck -0.424973 -8.49613 2.24641
upperneck 4.91167 -11.5864 3.42973
head 1.68397 -5.6947 0.507231
rclavicle -2.62396e-014 4.77083e-014
rhumerus 35.2151 -6.72845 -57.2823
rradius 62.2346
rwrist -21.9915
rhand -25.0543 17.5377
rfingers 7.12502
rthumb 1.45909 -12.437
lclavicle -2.62396e-014 4.77083e-014
lhumerus -21.832 -6.84409 84.1853
lradius 40.5111
lwrist -12.8179
lhand -22.3129 -8.13593
lfingers 7.12502
lthumb 4.10664 21.8042
rfemur -19.3957 0.0738902 8.21626
rtibia 27.4267
rfoot -2.77464 13.7463
rtoes -2.42193
lfemur 1.60119 2.54468 -20.177
ltibia 21.0377
lfoot -11.4434 -15.5894
ltoes -4.91169
68
root -17.9975 19.207 -0.858617 1244.12 253.432 -165.977
lowerback -5.8583 2.82653 -4.44866
upperback 8.21639 4.66329 -5.36151
thorax 12.3362 2.03593 -2.62452
lowerneck -0.45429 -8.57903 2.43911
upperneck 5.02431 -11.7066 3.39934
head 1.71245 -5.74941 0.462339
rclavicle -8.38871e-014 2.70347e-014
rhumerus 36.1358 -7.05024 -56.5999
rradius 61.1275
rwrist -21.8861
rhand -25.3188 17.9003
rfingers 7.12502
rthumb 1.20368 -12.076
lclavicle -8.38871e-014 2.70347e-014
lhumerus -21.9116 -6.84039 84.2325
lradius 40.2293
lwrist -13.076
lhand -21.9685 -8.04557
lfingers 7.12502
lthumb 4.43914 21.8879
rfemur -19.3209 -0.0548768 8.2633
rtibia 27.7114
rfoot -2.32544 13.4516
rtoes -3.09387
lfemur 1.85687 2.33463 -20.0616
ltibia 20.8739
lfoot -11.5191 -15.7925
ltoes -4.75733
69
root -18.0917 19.2015 -0.875322 1244.63 252.933 -166.391
lowerback -5.96723 2.83232 -4.3139
upperback 8.18673 4.667 -5.34338
thorax 12.3777 2.05081 -2.67375
lowerneck -0.469866 -8.66747 2.68448
upperneck 5.1377 -11.8323 3.32443
head 1.73231 -5.80683 0.396752
rclavicle -2.10712e-014 -9.54166e-015
rhumerus 36.9673 -7.32607 -55.8984
rradius 60.0376
rwrist -22.0261
rhand -25.6432 18.4251
rfingers 7.12502
rthumb 0.890329 -11.5528
lclavicle -2.10712e-014 -9.54166e-015
lhumerus -22.0223 -6.99858 84.2548
lradius 39.96
lwrist -13.1944
lhand -21.6431 -7.7486
lfingers 7.12502
lthumb 4.75336 22.1781
rfemur -19.2547 -0.224169 8.34599
rtibia 28.064
rfoot -2.00363 13.1865
rtoes -2.27805
lfemur 2.06131 2.09236 -19.9195
ltibia 20.7181
lfoot -11.5867 -15.9578
ltoes -4.61166
70
root -18.1849 19.1954 -0.891243 1245.13 252.426 -166.778
lowerback -6.065 2.84866 -4.15781
upperback 8.14943 4.68139 -5.33115
thorax 12.4061 2.07343 -2.73987
lowerneck -0.557004 -8.75543 2.88482
upperneck 5.29983 -11.9648 3.29147
head 1.78582 -5.86545 0.345507
rclavicle -8.98507e-014 6.20208e-014
rhumerus 37.7573 -7.59051 -55.2318
rradius 58.925
rwrist -22.1104
rhand -25.9132 18.8654
rfingers 7.12502
rthumb 0.629608 -11.1134
lclavicle -8.98507e-014 6.20208e-014
lhumerus -22.1374 -7.13528 84.2791
lradius 39.669
lwrist -13.402
lhand -21.2993 -7.39993
lfingers 7.12502
lthumb 5.08539 22.5191
rfemur -19.1831 -0.515131 8.44632
rtibia 28.4656
rfoot -1.90333 13.0226
rtoes -2.23622
lfemur 2.24851 1.71893 -19.8097
ltibia 20.5884
lfoot -11.6858 -16.0144
ltoes -4.47371
71
root -18.2785 19.1891 -0.909234 1245.6 251.92 -167.147
lowerback -6.14564 2.85902 -4.03055
upperback 8.08162 4.68563 -5.2936
thorax 12.3829 2.08819 -2.76382
lowerneck -0.550519 -8.83692 2.99813
upperneck 5.45208 -12.0831 3.26922
head 1.82602 -5.91945 0.31576
rclavicle -3.45885e-014 5.24792e-014
rhumerus 38.4775 -7.76446 -54.5292
rradius 57.7678
rwrist -22.1611
rhand -26.1717 19.3867
rfingers 7.12502
rthumb 0.379944 -10.5927
lclavicle -3.45885e-014 5.24792e-014
lhumerus -22.3574 -7.19661 84.37
lradius 39.3526
lwrist -13.6678
lhand -20.994 -6.96675
lfingers 7.12502
lthumb 5.38016 22.945
rfemur -19.099 -0.812026 8.55689
rtibia 28.8936
rfoot -2.02733 12.8582
rtoes -2.61651
lfemur 2.41566 1.30913 -19.6969
ltibia 20.4934
lfoot -11.7713 -16.0156
ltoes -4.23711
72
root -18.3711 19.182 -0.926441 1246.03 251.419 -167.487
lowerback -6.21813 2.87372 -3.88271
upperback 8.01819 4.69208 -5.24869
thorax 12.3608 2.10543 -2.79118
lowerneck -0.526588 -8.92373 3.01677
upperneck 5.59489 -12.209 3.30857
head 1.87054 -5.97808 0.319691
rclavicle -3.49861e-014 -9.54166e-015
rhumerus 39.1429 -7.90627 -53.8164
rradius 56.676
rwrist -22.1469
rhand -26.4355 19.7695
rfingers 7.12502
rthumb 0.125128 -10.2102
lclavicle -3.49861e-014 -9.54166e-015
lhumerus -22.6131 -7.12361 84.5054
lradius 39.0368
lwrist -14.0071
lhand -20.724 -6.55807
lfingers 7.12502
lthumb 5.64079 23.3468
rfemur -18.9919 -1.10461 8.66571
rtibia 29.3387
rfoot -2.31253 12.733
rtoes -3.26704
lfemur 2.59294 0.873255 -19.5972
ltibia 20.42
lfoot -11.8166 -15.9858
ltoes -3.89214
73
root -18.4621 19.1752 -0.944207 1246.51 250.925 -167.862
lowerback -6.29776 2.87548 -3.71225
upperback 7.94728 4.67752 -5.19205
thorax 12.3342 2.11418 -2.82139
lowerneck -0.487462 -8.99589 2.96322
upperneck 5.73255 -12.3138 3.36475
head 1.91665 -6.02739 0.340743
rclavicle 2.38542e-014 -2.06736e-014
rhumerus 39.7887 -8.00028 -53.108
rradius 55.6098
rwrist -22.099
rhand -26.581 20.114
rfingers 7.12502
rthumb -0.0153751 -9.86576
lclavicle 2.38542e-014 -2.06736e-014
lhumerus -22.8733 -6.90192 84.635
lradius 38.654
lwrist -14.3271
lhand -20.476 -6.26079
lfingers 7.12502
lthumb 5.88027 23.6376
rfemur -18.9016 -1.43146 8.80467
rtibia 29.7717
rfoot -2.71039 12.6422
rtoes -4.02393
lfemur 2.72522 0.43597 -19.4802
ltibia 20.3792
lfoot -11.9251 -15.8935
ltoes -3.86009
74
root -18.5534 19.1677 -0.962477 1247.02 250.42 -168.282
lowerback -6.40029 2.88409 -3.5295
upperback 7.89289 4.67248 -5.12627
thorax 12.3415 2.12749 -2.84629
lowerneck -0.436132 -9.07858 2.91554
upperneck 5.85861 -12.4318 3.41968
head 1.9567 -6.08354 0.361272
rclavicle 3.65764e-014 -2.54444e-014
rhumerus 40.3676 -8.09243 -52.3701
rradius 54.6043
rwrist -22.0371
rhand -26.7943 20.3443
rfingers 7.12502
rthumb -0.221411 -9.63536
lclavicle 3.65764e-014 -2.54444e-014
lhumerus -23.1286 -6.56654 84.7641
lradius 38.225
lwrist -14.7389
lhand -20.2945 -6.15885
lfingers 7.12502
lthumb 6.05545 23.7346
rfemur -18.7917 -1.69841 8.95329
rtibia 30.1863
rfoot -3.19227 12.5288
rtoes -4.65224
lfemur 2.85002 -0.0646895 -19.3499
ltibia 20.3686
lfoot -11.9958 -15.7717
ltoes -3.46513
75
root -18.6433 19.161 -0.979521 1247.47 249.94 -168.664
lowerback -6.52611 2.8929 -3.36099
upperback 7.88204 4.66986 -5.02908
thorax 12.4095 2.13779 -2.82809
lowerneck -0.460256 -9.15382 2.78834
upperneck 5.97371 -12.542 3.49909
head 2.01352 -6.13582 0.397528
rclavicle 1.05356e-014 1.43125e-014
rhumerus 40.9853 -8.16612 -51.5737
rradius 53.5955
rwrist -21.8941
rhand -26.9127 20.5309
rfingers 7.12502
rthumb -0.335815 -9.44856
lclavicle 1.05356e-014 1.43125e-014
lhumerus -23.3064 -6.03658 84.9056
lradius 37.7219
lwrist -15.1966
lhand -20.0998 -6.24861
lfingers 7.12502
lthumb 6.24345 23.6394
rfemur -18.6818 -1.96685 9.09398
rtibia 30.5754
rfoot -3.64836 12.4669
rtoes -4.92633
lfemur 2.98676 -0.588515 -19.241
ltibia 20.3721
lfoot -12.0761 -15.5564
ltoes -3.38648
76
root -18.7322 19.1547 -0.997449 1247.92 249.448 -169.036
lowerback -6.63752 2.91419 -3.17561
upperback 7.85385 4.6819 -4.96025
thorax 12.4536 2.15854 -2.84834
lowerneck -0.400478 -9.24609 2.72565
upperneck 6.0587 -12.6721 3.58638
head 2.04271 -6.19879 0.431376
rclavicle 2.127e-014 -1.11319e-014
rhumerus 41.4518 -8.22886 -50.7908
rradius 52.7112
rwrist -21.7319
rhand -27.0273 20.532
rfingers 7.12502
rthumb -0.446472 -9.44723
lclavicle 2.127e-014 -1.11319e-014
lhumerus -23.5467 -5.58257 85.0003
lradius 37.2479
lwrist -15.6288
lhand -20.0037 -6.31134
lfingers 7.12502
lthumb 6.33629 23.5739
rfemur -18.5705 -2.19809 9.23601
rtibia 30.9426
rfoot -4.15467 12.3878
rtoes -5.27653
lfemur 3.10889 -1.04794 -19.1131
ltibia 20.3913
lfoot -12.1408 -15.3762
ltoes -3.30618
77
root -18.8207 19.1486 -1.01493 1248.32 248.99 -169.375
lowerback -6.75836 2.92506 -3.01688
upperback 7.83315 4.68094 -4.86477
thorax 12.5067 2.1689 -2.82636
lowerneck -0.381351 -9.31217 2.56272
upperneck 6.19362 -12.7711 3.69214
head 2.10365 -6.24585 0.482743
rclavicle -3.77691e-014 4.6118e-014
rhumerus 41.9181 -8.19181 -49.9673
rradius 51.8585
rwrist -21.5634
rhand -27.1344 20.4897
rfingers 7.12502
rthumb -0.549886 -9.48937
lclavicle -3.77691e-014 4.6118e-014
lhumerus -23.7531 -4.89943 85.0798
lradius 36.6778
lwrist -16.2071
lhand -19.806 -6.5454
lfingers 7.12502
lthumb 6.52706 23.334
rfemur -18.4429 -2.40906 9.37605
rtibia 31.2753
rfoot -4.69782 12.363
rtoes -5.03757
lfemur 3.22978 -1.55736 -19.0053
ltibia 20.4455
lfoot -12.2147 -15.1335
ltoes -3.19995
78
root -18.9078 19.1431 -1.03176 1248.68 248.535 -169.691
lowerback -6.87555 2.94429 -2.84178
upperback 7.82025 4.68983 -4.78297
thorax 12.5701 2.18602 -2.82709
lowerneck -0.337213 -9.39291 2.47833
upperneck 6.27556 -12.8855 3.77004
head 2.13586 -6.30137 0.51653
rclavicle 7.7526e-015 3.97569e-014
rhumerus 42.2468 -8.10344 -49.0744
rradius 51.1486
rwrist -21.6762
rhand -27.2193 20.4083
rfingers 7.12502
rthumb -0.631858 -9.57053
lclavicle 7.7526e-015 3.97569e-014
lhumerus -23.9816 -4.20339 85.1283
lradius 36.1316
lwrist -16.7557
lhand -19.72 -6.72404
lfingers 7.12502
lthumb 6.61008 23.1528
rfemur -18.2928 -2.64518 9.50855
rtibia 31.5831
rfoot -5.24235 12.4012
rtoes -4.78475
lfemur 3.33721 -1.95741 -18.8875
ltibia 20.5324
lfoot -12.2759 -14.9194
ltoes -3.24958
